<svg xmlns="http://www.w3.org/2000/svg" width="469.29999" height="113.3875" viewBox="0 0 469.29999 113.3875">
  <g id="g4144" inkscape:groupmode="layer" inkscape:label="ink_ext_XXXXXX"
    transform="matrix(1.25,0,0,-1.25,0,113.3875)">
    <g id="g4146" transform="scale(0.1,0.1)">
      <path
        d="m 3049.71,412.031 20.52,0 c 19.61,0 30.18,-9.961 30.18,-29.875 0,-23.23 -11.78,-32.285 -32.6,-32.285 l -18.1,0 0,62.16 z m -43.45,-183.468 43.45,0 0,91.132 23.23,0 c 17.5,0 25.05,-10.261 25.66,-27.156 l 1.2,-41.348 c 0.3,-8.437 1.21,-16.582 5.43,-22.628 l 47.07,0 0,1.808 c -8.14,4.238 -9.35,15.996 -9.65,38.621 -0.6,45.571 -5.13,61.875 -34.7,65.793 l 0,0.598 c 24.44,5.137 35.91,24.441 35.91,53.113 0,36.817 -21.73,55.527 -57.34,55.527 l -80.26,0 0,-215.46"
        style="fill-opacity:1;fill-rule:nonzero;stroke:none" id="path4148"
        inkscape:connector-curvature="0" />
      <path
        d="m 2365.63,444.02 0,-150.27 c 0,-57.637 33.49,-69.414 68.79,-69.414 35.31,0 68.8,14.48 68.8,69.414 l 0,150.27 -43.44,0 0,-150.27 c 0,-21.426 -5.13,-37.422 -25.36,-37.422 -20.21,0 -25.35,15.996 -25.35,37.422 l 0,150.27 -43.44,0"
        style="fill-opacity:1;fill-rule:nonzero;stroke:none" id="path4150"
        inkscape:connector-curvature="0" />
      <path
        d="m 2513.87,444.02 0,-215.446 39.82,0 0,150.867 0.61,0 53.1,-150.867 49.49,0 0,215.446 -39.82,0 0,-147.555 -0.61,0 -52.5,147.555 -50.09,0"
        style="fill-opacity:1;fill-rule:nonzero;stroke:none" id="path4152"
        inkscape:connector-curvature="0" />
      <path d="m 2711.52,444.02 -43.45,0 0,-215.446 43.45,0 0,215.446"
        style="fill-opacity:1;fill-rule:nonzero;stroke:none" id="path4154"
        inkscape:connector-curvature="0" />
      <path
        d="m 2714.5,444.02 49.48,-215.446 55.83,0 49.48,215.446 -44.96,0 -31.98,-159.332 -0.9,0 -30.48,159.332 -46.47,0"
        style="fill-opacity:1;fill-rule:nonzero;stroke:none" id="path4156"
        inkscape:connector-curvature="0" />
      <path
        d="m 2873.16,444.02 0,-215.446 123.42,0 0,35.598 -79.96,0 0,57.937 72.42,0 0,35.618 -72.42,0 0,50.679 76.94,0 0,35.614 -120.4,0"
        style="fill-opacity:1;fill-rule:nonzero;stroke:none" id="path4158"
        inkscape:connector-curvature="0" />
      <path
        d="m 3147.46,295.859 0,-8.75 c 0,-39.843 19.32,-62.773 68.51,-62.773 47.07,0 74.82,20.519 74.82,66.094 0,26.25 -8.45,42.84 -41.03,57.031 l -33.5,14.473 c -18.41,7.851 -22.32,15.996 -22.32,29.277 0,12.668 5.12,25.051 24.73,25.051 16.59,0 23.55,-11.77 23.55,-31.992 l 41.64,0 0,6.043 c 0,41.335 -28.08,57.925 -66.69,57.925 -41.05,0 -66.68,-21.422 -66.68,-63.355 0,-35.918 17.79,-51.914 56.41,-65.188 28.68,-9.961 38.64,-17.195 38.64,-36.812 0,-18.11 -12.69,-26.555 -25.96,-26.555 -22.94,0 -28.66,12.969 -28.66,33.192 l 0,6.339 -43.46,0"
        style="fill-opacity:1;fill-rule:nonzero;stroke:none" id="path4160"
        inkscape:connector-curvature="0" />
      <path d="m 3339.92,444.02 -43.45,0 0,-215.446 43.45,0 0,215.446"
        style="fill-opacity:1;fill-rule:nonzero;stroke:none" id="path4162"
        inkscape:connector-curvature="0" />
      <path
        d="m 3565.62,444.02 -30.18,-83.278 -0.6,0 -28.36,83.278 -160.86,0 0,-35.614 47.08,0 0,-179.832 43.45,0 0,179.832 36.65,0 40.61,-95.047 0,-84.785 43.46,0 0,84.785 55.83,130.661 -47.08,0"
        style="fill-opacity:1;fill-rule:nonzero;stroke:none" id="path4164"
        inkscape:connector-curvature="0" />
      <path
        d="m 1983.92,463.617 -72.01,0 0,216.406 118.07,0 c 32.02,0.012 59.63,-20.714 68.64,-48.199 8.34,-25.457 1.21,-53.117 -17.6,-72.808 2.5,-6.782 4.94,-12.09 7.25,-18.18 5.24,-12.051 10.01,-24.098 15.25,-36.004 l 17.12,-41.215 -0.43,0 -72.57,0 c 0,-0.043 -0.59,1.738 -1.17,2.465 -2.9,6.383 -5.51,13.215 -8.41,19.594 l -17.56,41.66 c -6.97,16.84 -13.95,32.754 -20.91,49.578 8.69,0.242 15.2,-1.387 23.58,2.473 5.9,2.898 14.85,10.109 15.07,23.937 -0.22,6.852 -2.13,12.043 -6.66,17.442 -4.55,5.019 -11.13,8.742 -19.7,8.859 0,0 -27.97,0.008 -27.96,0 l 0,-166.008"
        style="fill-opacity:1;fill-rule:nonzero;stroke:none" id="path4166"
        inkscape:connector-curvature="0" />
      <path
        d="m 2735.97,680.027 0,-216.41 -72.01,0 0,88.242 -6.71,0 -43.1,0 -0.6,0 0,-88.242 c -13.05,0 -27.13,0.145 -40.19,0 l -31.8,0 0,166.332 -50.36,0 0,-5.222 0,-15.668 0,-71.27 0,-74.172 -0.58,0 -71.42,0 0,89.703 0,3.477 0,73.152 -50.79,0 0,-78.519 0,-87.813 -74.17,0 c -12.92,31.203 -26.56,62.699 -39.19,93.762 -1.45,6.531 -2.9,13.07 -4.79,19.453 l 0,-113.215 -74.32,0 c -14.73,34.254 -28.88,67.824 -43.57,102.582 -5.09,12.039 -9.26,21.836 -14.52,34.36 l -0.72,1.636 -11.44,26.852 -16.38,38.351 c -1.44,4.348 -3.76,8.282 -5.22,12.629 l 74.15,0 c 15.24,-37.007 30.62,-73.586 46.59,-110.015 l 0.44,-0.871 c -0.58,4.211 -1.9,9.582 -2.62,13.636 l 0,64.59 c 0.14,10.313 0,22.071 0,32.66 l 74.31,0 c 0.94,-2.355 1.46,-3.632 2.18,-5.519 8.71,-20.461 16.99,-40.778 25.7,-61.102 l 19.45,-44.265 c -0.44,4.648 -1.46,9.14 -2.04,13.636 l 0,97.25 5.96,0 50.51,0 182.88,0 51.95,0 0,-13.5 0,-64.589 3.5,0 46.91,0 0,78.089 37.56,0 34.45,0"
        style="fill-opacity:1;fill-rule:nonzero;stroke:none" id="path4168"
        inkscape:connector-curvature="0" />
      <path
        d="m 2993.02,680.051 -53.96,0 -45.16,-170.594 -45.16,170.594 -53.96,0 -57.29,-216.434 45.47,0 10,45.774 57.61,0 9.99,-45.774 66.68,0 10,45.774 57.59,0 10,-45.774 45.48,0 -57.29,216.434 z m -192.47,-134.891 20.9,97.301 0.61,0 20.92,-97.301 -42.43,0 z m 144.26,0 20.93,97.301 0.6,0 20.92,-97.301 -42.45,0"
        style="fill-opacity:1;fill-rule:nonzero;stroke:none" id="path4170"
        inkscape:connector-curvature="0" />
      <path
        d="m 3180.3,606.199 c 0,31.379 -4.52,76.949 -66.69,76.949 -65.16,0 -73.33,-46.468 -73.33,-111.949 0,-65.48 8.17,-111.953 73.33,-111.953 57.03,0 68.5,40.133 68.5,86.606 l -43.45,0 c 0,-46.473 -11.46,-54.622 -27.16,-54.622 -18.71,0 -27.76,11.766 -27.76,76.95 0,60.953 5.14,82.98 27.16,82.98 19.62,0 25.96,-13.582 25.96,-44.961 l 43.44,0"
        style="fill-opacity:1;fill-rule:nonzero;stroke:none" id="path4172"
        inkscape:connector-curvature="0" />
      <path
        d="m 3190.69,463.617 43.65,0 0,96.078 50.91,0 0,-96.078 43.66,0 0,216.406 -43.66,0 0,-82.75 -50.91,0 0,82.75 -43.65,0 0,-216.406"
        style="fill-opacity:1;fill-rule:nonzero;stroke:none" id="path4174"
        inkscape:connector-curvature="0" />
      <path
        d="m 3338.37,680.066 0,-216.449 123.99,0 0,35.77 -80.33,0 0,58.211 72.75,0 0,35.769 -72.75,0 0,50.93 77.3,0 0,35.769 -120.96,0"
        style="fill-opacity:1;fill-rule:nonzero;stroke:none" id="path4176"
        inkscape:connector-curvature="0" />
      <path
        d="m 3468.85,680.023 0,-216.406 40.01,0 0,151.547 0.59,0 53.35,-151.547 49.72,0 0,216.406 -40.02,0 0,-148.207 -0.61,0 -52.74,148.207 -50.3,0"
        style="fill-opacity:1;fill-rule:nonzero;stroke:none" id="path4178"
        inkscape:connector-curvature="0" />
      <path d="m 1765.18,226.77 10,0 0,453.55 -10,0 0,-453.55"
        style="fill-opacity:1;fill-rule:nonzero;stroke:none" id="path4180"
        inkscape:connector-curvature="0" />
      <path
        d="m 856.063,264.07 0,1.504 c 0,2.129 0.531,3.828 1.605,5.102 1.066,1.265 2.664,1.89 4.797,1.89 2.332,0 3.98,-0.574 4.945,-1.746 0.973,-1.172 1.453,-2.773 1.453,-4.843 0,-1.805 -0.402,-3.172 -1.195,-4.102 -0.805,-0.937 -2.234,-1.672 -4.305,-2.207 l -7.797,-2.102 c -2.402,-0.664 -4.453,-1.421 -6.152,-2.293 -1.699,-0.871 -3.101,-1.953 -4.199,-3.253 -1.098,-1.297 -1.918,-2.872 -2.449,-4.696 -0.532,-1.836 -0.801,-4.023 -0.801,-6.554 0,-1.793 0.226,-3.622 0.703,-5.45 0.469,-1.824 1.195,-3.472 2.195,-4.949 1,-1.465 2.328,-2.668 4,-3.601 1.668,-0.93 3.7,-1.399 6.102,-1.399 3.332,0 6.051,0.469 8.148,1.399 2.102,0.933 3.953,2.8 5.547,5.601 l 0.203,0 c 0.2,-0.926 0.418,-1.883 0.649,-2.851 0.234,-0.965 0.582,-1.875 1.054,-2.75 l 13.2,0 c -0.668,1.597 -1.125,3.101 -1.356,4.5 -0.226,1.406 -0.344,3.371 -0.344,5.898 l 0,28.301 c 0,2.402 -0.25,4.621 -0.753,6.648 -0.497,2.031 -1.45,3.781 -2.852,5.254 -1.395,1.469 -3.379,2.602 -5.945,3.399 -2.571,0.8 -5.879,1.203 -9.953,1.203 -2.598,0 -5.047,-0.285 -7.348,-0.852 -2.301,-0.562 -4.301,-1.504 -6,-2.801 -1.699,-1.3 -3.055,-3.015 -4.047,-5.144 -1.004,-2.129 -1.508,-4.738 -1.508,-7.805 l 0,-1.301 12.403,0 z m 12.8,-20.996 c 0,-1.531 -0.269,-2.82 -0.797,-3.855 -0.531,-1.028 -1.218,-1.875 -2.05,-2.547 -0.828,-0.664 -1.754,-1.152 -2.754,-1.445 -0.996,-0.305 -1.969,-0.454 -2.895,-0.454 -1.871,0 -3.203,0.723 -4.004,2.2 -0.797,1.465 -1.195,3.23 -1.195,5.3 0,2.395 0.594,4.297 1.797,5.696 1.199,1.406 3.203,2.402 6,3.008 0.867,0.195 1.832,0.515 2.898,0.949 1.071,0.429 2.071,1.012 3,1.746 l 0,-10.598 z m 23.25,-16.304 13.801,0 0,35.703 c 0,5.925 2.43,8.894 7.301,8.894 2.058,0 3.558,-0.547 4.5,-1.64 0.93,-1.106 1.402,-3.055 1.402,-5.86 l 0,-37.097 13.797,0 0,39.902 c 0,5.398 -1.191,9.305 -3.551,11.695 -2.371,2.403 -5.75,3.606 -10.148,3.606 -3,0 -5.668,-0.625 -8,-1.856 -2.344,-1.222 -4.242,-3.176 -5.703,-5.847 l -0.199,0 0,6.304 -13.2,0 0,-53.804 z m 78.219,0 13.203,0 0,71.406 -13.801,0 0,-22.602 -0.199,0 c -1.469,2.129 -3.117,3.735 -4.949,4.797 -1.844,1.074 -4.055,1.602 -6.652,1.602 -5.668,0 -9.836,-2.215 -12.5,-6.653 -2.668,-4.429 -3.996,-11.648 -3.996,-21.648 0,-10 1.328,-17.219 3.996,-21.652 2.664,-4.43 6.832,-6.649 12.5,-6.649 2.796,0 5.152,0.547 7.05,1.649 1.903,1.105 3.61,2.921 5.149,5.453 l 0.199,0 0,-5.703 z m -13.75,40.156 c 0.902,2.969 2.852,4.441 5.852,4.441 3.058,0 5.05,-1.472 5.949,-4.441 0.898,-2.973 1.351,-7.383 1.351,-13.254 0,-5.867 -0.453,-10.281 -1.351,-13.25 -0.899,-2.973 -2.891,-4.445 -5.949,-4.445 -3,0 -4.95,1.472 -5.852,4.445 -0.898,2.969 -1.348,7.383 -1.348,13.25 0,5.871 0.45,10.281 1.348,13.254 m 83.248,18.844 0.2,0 6.9,-32.098 -14,0 6.9,32.098 z m -27.7,-59 15,0 3.3,15.105 19,0 3.3,-15.105 15,0 -18.9,71.406 -17.79,0 -18.91,-71.406 z m 99.81,34.402 c 0,6.394 -1.62,11.473 -4.85,15.195 -3.24,3.731 -8.05,5.606 -14.45,5.606 -3.2,0 -6.14,-0.43 -8.8,-1.297 -2.67,-0.871 -4.97,-2.387 -6.9,-4.555 -1.94,-2.168 -3.43,-5.066 -4.49,-8.699 -1.08,-3.633 -1.61,-8.223 -1.61,-13.75 0,-5.402 0.43,-9.922 1.3,-13.555 0.86,-3.625 2.15,-6.523 3.86,-8.691 1.7,-2.18 3.82,-3.723 6.39,-4.656 2.57,-0.93 5.58,-1.399 9.06,-1.399 7.32,0 12.57,1.902 15.74,5.703 3.16,3.797 4.75,9.231 4.75,16.297 l -13.19,0 c 0,-4.402 -0.55,-7.598 -1.61,-9.598 -1.07,-2.003 -2.76,-3 -5.09,-3 -1.55,0 -2.8,0.344 -3.75,1.047 -0.98,0.703 -1.73,1.825 -2.26,3.352 -0.54,1.531 -0.9,3.484 -1.09,5.848 -0.2,2.375 -0.31,5.222 -0.31,8.554 0,3.067 0.11,5.774 0.31,8.098 0.19,2.332 0.55,4.246 1.09,5.75 0.53,1.504 1.31,2.629 2.35,3.398 1.03,0.774 2.42,1.153 4.15,1.153 1.26,0 2.31,-0.325 3.15,-0.95 0.83,-0.632 1.46,-1.472 1.9,-2.5 0.43,-1.035 0.74,-2.207 0.91,-3.503 0.15,-1.297 0.25,-2.579 0.25,-3.848 l 13.19,0 z m 7.15,-19.902 c 0.67,-3.528 1.8,-6.497 3.41,-8.899 1.59,-2.398 3.75,-4.18 6.49,-5.351 2.73,-1.168 6.17,-1.715 10.3,-1.649 3.93,0 7.25,0.625 9.95,1.856 2.7,1.218 4.89,3.027 6.56,5.39 1.66,2.371 2.85,5.321 3.59,8.86 0.73,3.523 1.1,7.593 1.1,12.195 0,4.668 -0.33,8.777 -1,12.351 -0.67,3.567 -1.79,6.543 -3.4,8.95 -1.6,2.398 -3.77,4.175 -6.5,5.347 -2.73,1.172 -6.17,1.719 -10.3,1.653 -3.94,0 -7.24,-0.625 -9.94,-1.856 -2.7,-1.222 -4.9,-3.027 -6.56,-5.39 -1.67,-2.372 -2.87,-5.325 -3.6,-8.86 -0.74,-3.523 -1.09,-7.597 -1.09,-12.195 0,-4.727 0.32,-8.867 0.99,-12.402 m 13,20 c 0.13,2.335 0.45,4.335 0.95,6.003 0.5,1.672 1.23,2.969 2.2,3.899 0.97,0.93 2.31,1.394 4.05,1.394 2.8,0 4.73,-1.461 5.8,-4.39 1.06,-2.934 1.6,-7.778 1.6,-14.504 0,-6.731 -0.54,-11.57 -1.6,-14.5 -1.07,-2.934 -3,-4.399 -5.8,-4.399 -1.74,0 -3.08,0.469 -4.05,1.399 -0.97,0.93 -1.7,2.226 -2.2,3.894 -0.5,1.672 -0.82,3.672 -0.95,6.008 -0.14,2.324 -0.2,4.864 -0.2,7.598 0,2.734 0.06,5.273 0.2,7.598 m 64.03,-34.5 13.21,0 0,53.804 -13.81,0 0,-35.703 c 0,-5.926 -2.43,-8.894 -7.3,-8.894 -2.07,0 -3.57,0.546 -4.49,1.64 -0.95,1.106 -1.41,3.059 -1.41,5.86 l 0,37.097 -13.79,0 0,-39.898 c 0,-5.403 1.17,-9.309 3.55,-11.699 2.35,-2.407 5.74,-3.606 10.14,-3.606 3,0 5.67,0.625 8,1.856 2.33,1.218 4.23,3.171 5.7,5.847 l 0.2,0 0,-6.304 z m 20.97,17.605 0,-1.902 c 0,-2.602 0.3,-4.953 0.9,-7.051 0.6,-2.102 1.65,-3.899 3.15,-5.402 1.5,-1.497 3.51,-2.649 6.05,-3.45 2.53,-0.8 5.76,-1.199 9.7,-1.199 2.87,0 5.53,0.352 8,1.055 2.46,0.691 4.58,1.75 6.36,3.144 1.75,1.407 3.14,3.172 4.15,5.301 0.99,2.133 1.49,4.602 1.49,7.402 0,4.067 -0.89,7.278 -2.7,9.653 -1.8,2.371 -4.86,4.273 -9.19,5.75 l -8.31,2.793 c -2.33,0.73 -3.92,1.633 -4.75,2.707 -0.84,1.062 -1.25,2.262 -1.25,3.594 0,1.929 0.65,3.386 1.95,4.351 1.31,0.969 2.81,1.445 4.55,1.445 2.26,0 3.85,-0.64 4.75,-1.941 0.9,-1.301 1.36,-3.352 1.36,-6.152 l 12.39,0 0,2.199 c 0,4.871 -1.5,8.633 -4.49,11.297 -3.01,2.676 -7.65,4.004 -13.91,4.004 -3.54,0 -6.55,-0.43 -9.05,-1.297 -2.5,-0.871 -4.54,-2.031 -6.15,-3.508 -1.6,-1.465 -2.76,-3.176 -3.5,-5.148 -0.74,-1.969 -1.09,-4.051 -1.09,-6.25 0,-3.797 0.95,-6.922 2.9,-9.344 1.92,-2.434 4.8,-4.324 8.59,-5.656 l 9.71,-3.497 c 1.32,-0.535 2.5,-1.25 3.49,-2.156 1,-0.898 1.51,-2.219 1.51,-3.945 0,-2.129 -0.65,-3.731 -1.91,-4.805 -1.27,-1.062 -2.97,-1.594 -5.1,-1.594 -2.33,0 -4.12,0.715 -5.35,2.153 -1.24,1.426 -1.85,3.316 -1.85,5.64 l 0,1.809 -12.4,0 z m 51.04,36.199 -7.01,0 0,-9.402 7.01,0 0,-30.801 c 0,-2.726 0.16,-5 0.49,-6.797 0.34,-1.804 0.96,-3.254 1.85,-4.355 0.9,-1.094 2.19,-1.875 3.86,-2.344 1.66,-0.469 3.85,-0.703 6.59,-0.703 1.6,0 3.11,0.066 4.55,0.195 1.43,0.137 2.91,0.274 4.45,0.403 l 0,9.597 c -0.47,-0.066 -0.96,-0.117 -1.5,-0.144 -0.53,-0.032 -1.07,-0.051 -1.59,-0.051 -2.01,0 -3.32,0.449 -3.95,1.348 -0.64,0.898 -0.96,2.421 -0.96,4.55 l 0,29.102 8,0 0,9.402 -8,0 0,15.403 -13.79,0 0,-15.403 z m 28.36,6.594 13.8,0 0,11.809 -13.8,0 0,-11.809 z m 0,-60.398 13.8,0 0,53.804 -13.8,0 0,-53.804 z m 63.28,34.402 c 0,6.394 -1.62,11.473 -4.86,15.195 -3.23,3.731 -8.04,5.606 -14.45,5.606 -3.19,0 -6.12,-0.43 -8.79,-1.297 -2.67,-0.871 -4.97,-2.387 -6.9,-4.555 -1.94,-2.168 -3.44,-5.066 -4.51,-8.699 -1.06,-3.633 -1.6,-8.223 -1.6,-13.75 0,-5.402 0.44,-9.922 1.31,-13.555 0.86,-3.625 2.14,-6.523 3.84,-8.691 1.7,-2.18 3.85,-3.723 6.4,-4.656 2.57,-0.93 5.6,-1.399 9.05,-1.399 7.34,0 12.6,1.902 15.75,5.703 3.17,3.797 4.76,9.231 4.76,16.297 l -13.21,0 c 0,-4.402 -0.52,-7.598 -1.59,-9.598 -1.06,-2.003 -2.77,-3 -5.11,-3 -1.53,0 -2.78,0.344 -3.75,1.047 -0.95,0.703 -1.71,1.825 -2.25,3.352 -0.53,1.531 -0.9,3.484 -1.1,5.848 -0.2,2.375 -0.29,5.222 -0.29,8.554 0,3.067 0.09,5.774 0.29,8.098 0.2,2.332 0.57,4.246 1.1,5.75 0.54,1.504 1.33,2.629 2.36,3.398 1.04,0.774 2.41,1.153 4.15,1.153 1.27,0 2.32,-0.325 3.15,-0.95 0.84,-0.632 1.47,-1.472 1.9,-2.5 0.43,-1.035 0.73,-2.207 0.89,-3.503 0.17,-1.297 0.25,-2.579 0.25,-3.848 l 13.21,0 z m 5.93,-16.797 0,-1.902 c 0,-2.602 0.31,-4.953 0.9,-7.051 0.6,-2.102 1.65,-3.899 3.16,-5.402 1.49,-1.497 3.51,-2.649 6.05,-3.45 2.53,-0.8 5.76,-1.199 9.69,-1.199 2.87,0 5.54,0.352 8.01,1.055 2.46,0.691 4.59,1.75 6.34,3.144 1.78,1.407 3.15,3.172 4.15,5.301 1,2.133 1.5,4.602 1.5,7.402 0,4.067 -0.9,7.278 -2.7,9.653 -1.79,2.371 -4.86,4.273 -9.2,5.75 l -8.3,2.793 c -2.33,0.73 -3.91,1.633 -4.75,2.707 -0.83,1.062 -1.25,2.262 -1.25,3.594 0,1.929 0.66,3.386 1.95,4.351 1.3,0.969 2.82,1.445 4.56,1.445 2.27,0 3.84,-0.64 4.74,-1.941 0.91,-1.301 1.35,-3.352 1.35,-6.152 l 12.4,0 0,2.199 c 0,4.871 -1.5,8.633 -4.5,11.297 -3,2.676 -7.63,4.004 -13.9,4.004 -3.53,0 -6.54,-0.43 -9.04,-1.297 -2.5,-0.871 -4.56,-2.031 -6.16,-3.508 -1.6,-1.465 -2.76,-3.176 -3.5,-5.148 -0.73,-1.969 -1.1,-4.051 -1.1,-6.25 0,-3.797 0.98,-6.922 2.9,-9.344 1.94,-2.434 4.8,-4.324 8.6,-5.656 l 9.7,-3.497 c 1.34,-0.535 2.5,-1.25 3.51,-2.156 0.99,-0.898 1.49,-2.219 1.49,-3.945 0,-2.129 -0.63,-3.731 -1.89,-4.805 -1.26,-1.062 -2.96,-1.594 -5.11,-1.594 -2.33,0 -4.1,0.715 -5.34,2.153 -1.23,1.426 -1.85,3.316 -1.85,5.64 l 0,1.809 -12.41,0"
        style="fill-opacity:1;fill-rule:nonzero;stroke:none" id="path4182"
        inkscape:connector-curvature="0" />
      <path
        d="m 844.164,340.156 14.399,0 0,31.699 16.804,0 0,-31.699 14.399,0 0,71.399 -14.399,0 0,-27.297 -16.804,0 0,27.297 -14.399,0 0,-71.399 z m 95.371,24.805 0,3.098 c 0,4.129 -0.273,7.879 -0.801,11.25 -0.531,3.367 -1.531,6.226 -3.004,8.601 -1.468,2.363 -3.472,4.199 -6.046,5.496 -2.571,1.301 -5.852,1.953 -9.848,1.953 -4.668,0 -8.398,-0.769 -11.203,-2.3 -2.797,-1.536 -4.949,-3.606 -6.449,-6.204 -1.5,-2.597 -2.5,-5.566 -3,-8.894 -0.5,-3.332 -0.75,-6.809 -0.75,-10.402 0,-3.329 0.152,-6.719 0.449,-10.157 0.301,-3.425 1.121,-6.523 2.449,-9.297 1.336,-2.761 3.402,-5.019 6.203,-6.75 2.797,-1.726 6.699,-2.593 11.699,-2.593 6.602,0 11.43,1.676 14.5,5.047 3.067,3.371 4.727,8.171 5,14.453 l -12.402,0 c -0.398,-3.407 -1.129,-5.938 -2.195,-7.61 -1.071,-1.668 -2.774,-2.5 -5.106,-2.5 -1.265,0 -2.328,0.356 -3.195,1.059 -0.871,0.691 -1.574,1.629 -2.102,2.801 -0.531,1.164 -0.921,2.5 -1.152,3.996 -0.227,1.504 -0.348,3.047 -0.348,4.644 l 0,4.309 27.301,0 z m -27.301,8.191 0,2.102 c 0,1.269 0.121,2.527 0.348,3.801 0.231,1.265 0.621,2.422 1.152,3.457 0.528,1.023 1.25,1.863 2.149,2.5 0.898,0.625 2.051,0.945 3.453,0.945 1.394,0 2.551,-0.281 3.445,-0.852 0.903,-0.566 1.606,-1.394 2.102,-2.5 0.504,-1.101 0.847,-2.429 1.051,-4 0.199,-1.566 0.332,-3.378 0.398,-5.453 l -14.098,0 z m 47.207,4.309 0,1.492 c 0,2.133 0.536,3.828 1.606,5.102 1.066,1.265 2.668,1.902 4.797,1.902 2.332,0 3.98,-0.574 4.953,-1.746 0.965,-1.176 1.449,-2.785 1.449,-4.856 0,-1.796 -0.398,-3.164 -1.199,-4.101 -0.805,-0.93 -2.234,-1.668 -4.305,-2.195 l -7.797,-2.102 c -2.402,-0.676 -4.453,-1.426 -6.152,-2.305 -1.699,-0.871 -3.102,-1.941 -4.199,-3.242 -1.098,-1.301 -1.918,-2.871 -2.449,-4.707 -0.532,-1.824 -0.801,-4.015 -0.801,-6.543 0,-1.805 0.23,-3.625 0.703,-5.449 0.469,-1.836 1.199,-3.484 2.195,-4.949 1,-1.477 2.332,-2.676 4.004,-3.606 1.672,-0.926 3.695,-1.394 6.098,-1.394 3.332,0 6.051,0.468 8.148,1.394 2.102,0.93 3.953,2.805 5.555,5.606 l 0.199,0 c 0.199,-0.938 0.422,-1.883 0.649,-2.852 0.23,-0.976 0.578,-1.887 1.05,-2.754 l 13.2,0 c -0.668,1.602 -1.122,3.106 -1.348,4.5 -0.231,1.399 -0.352,3.371 -0.352,5.903 l 0,28.296 c 0,2.407 -0.25,4.622 -0.754,6.653 -0.496,2.031 -1.449,3.777 -2.843,5.254 -1.403,1.465 -3.387,2.597 -5.953,3.398 -2.571,0.801 -5.879,1.199 -9.954,1.199 -2.597,0 -5.046,-0.281 -7.347,-0.847 -2.301,-0.574 -4.301,-1.504 -6,-2.801 -1.699,-1.301 -3.047,-3.02 -4.047,-5.156 -1.004,-2.129 -1.5,-4.731 -1.5,-7.793 l 0,-1.301 12.394,0 z m 12.805,-21.008 c 0,-1.519 -0.273,-2.82 -0.801,-3.848 -0.531,-1.035 -1.218,-1.882 -2.05,-2.546 -0.832,-0.672 -1.754,-1.153 -2.75,-1.454 -1,-0.292 -1.973,-0.453 -2.899,-0.453 -1.871,0 -3.203,0.735 -4,2.207 -0.801,1.465 -1.199,3.227 -1.199,5.293 0,2.407 0.598,4.309 1.797,5.703 1.199,1.399 3.203,2.407 6,3 0.867,0.208 1.832,0.516 2.898,0.95 1.071,0.425 2.071,1.023 3.004,1.758 l 0,-10.61 z m 23.246,-16.297 13.798,0 0,32.305 c 0,1.797 0.3,3.32 0.91,4.551 0.6,1.218 1.39,2.226 2.39,3 1,0.769 2.1,1.316 3.3,1.648 1.2,0.32 2.41,0.496 3.6,0.496 0.73,0 1.45,-0.015 2.16,-0.047 0.69,-0.031 1.4,-0.078 2.14,-0.156 l 0,13.203 c -0.4,0.071 -0.82,0.117 -1.25,0.149 -0.44,0.039 -0.85,0.054 -1.25,0.054 -2.87,0 -5.29,-0.781 -7.3,-2.351 -2,-1.57 -3.7,-3.653 -5.1,-6.25 l -0.19,0 0,7.195 -13.208,0 0,-53.797 z m 34.598,60.403 13.8,0 0,11.796 -13.8,0 0,-11.796 z m 0,-60.403 13.8,0 0,53.797 -13.8,0 0,-53.797 z m 23.84,0 13.79,0 0,35.703 c 0,5.926 2.44,8.899 7.3,8.899 2.06,0 3.56,-0.547 4.5,-1.653 0.93,-1.093 1.4,-3.046 1.4,-5.847 l 0,-37.102 13.8,0 0,39.903 c 0,5.402 -1.18,9.296 -3.55,11.699 -2.37,2.402 -5.75,3.601 -10.14,3.601 -3.01,0 -5.68,-0.625 -8.01,-1.851 -2.34,-1.235 -4.24,-3.188 -5.7,-5.852 l -0.2,0 0,6.297 -13.19,0 0,-53.797 z m 63.36,34.356 c 0.16,2.5 0.5,4.492 1.04,5.996 0.53,1.504 1.26,2.578 2.2,3.254 0.93,0.664 2.17,0.996 3.7,0.996 2.73,0 4.61,-1.367 5.65,-4.106 1.03,-2.722 1.56,-7.363 1.56,-13.894 0,-2.278 -0.13,-4.356 -0.36,-6.25 -0.24,-1.903 -0.64,-3.528 -1.2,-4.856 -0.56,-1.328 -1.34,-2.371 -2.3,-3.14 -0.96,-0.774 -2.18,-1.157 -3.64,-1.157 -1.47,0 -2.66,0.383 -3.55,1.157 -0.91,0.769 -1.61,1.797 -2.1,3.093 -0.51,1.297 -0.84,2.786 -1,4.454 -0.18,1.671 -0.25,3.425 -0.25,5.3 0,3.594 0.07,6.653 0.25,9.153 m 14.15,19.441 0,-5.992 -0.2,0 c -1.35,2.801 -3.05,4.727 -5.11,5.801 -2.07,1.062 -4.06,1.597 -6,1.597 -3.74,0 -6.72,-0.828 -8.95,-2.5 -2.23,-1.668 -3.93,-3.828 -5.1,-6.453 -1.17,-2.629 -1.93,-5.578 -2.3,-8.847 -0.37,-3.274 -0.55,-6.473 -0.55,-9.598 0,-9.809 1.38,-16.777 4.15,-20.949 2.76,-4.168 6.88,-6.25 12.36,-6.25 2.19,0 4.3,0.593 6.34,1.797 2.04,1.203 3.75,2.8 5.16,4.796 l 0.2,0 0,-7.101 c 0,-2.793 -0.58,-5.117 -1.7,-6.941 -1.15,-1.836 -3.1,-2.754 -5.91,-2.754 -0.87,0 -1.69,0.125 -2.45,0.398 -0.76,0.273 -1.49,0.637 -2.15,1.106 -1.4,0.996 -2.1,2.363 -2.1,4.089 l -13.19,0 c 0,-4.597 1.57,-8.144 4.74,-10.644 3.17,-2.5 7.68,-3.75 13.56,-3.75 8.05,0 13.8,1.719 17.24,5.144 3.44,3.442 5.15,8.75 5.15,15.957 l 0,51.094 -13.19,0 z m 43.49,17.602 0,-11.797 15.6,0 0,-59.602 14.4,0 0,59.602 15.6,0 0,11.797 -45.6,0 z m 85.47,-46.594 0,3.098 c 0,4.129 -0.28,7.879 -0.81,11.25 -0.54,3.367 -1.54,6.226 -3,8.601 -1.47,2.363 -3.48,4.199 -6.05,5.496 -2.57,1.301 -5.85,1.953 -9.85,1.953 -4.66,0 -8.4,-0.769 -11.2,-2.3 -2.8,-1.536 -4.94,-3.606 -6.45,-6.204 -1.5,-2.597 -2.5,-5.566 -3,-8.894 -0.49,-3.332 -0.75,-6.809 -0.75,-10.402 0,-3.329 0.15,-6.719 0.46,-10.157 0.29,-3.425 1.1,-6.523 2.44,-9.297 1.34,-2.761 3.41,-5.019 6.2,-6.75 2.81,-1.726 6.7,-2.593 11.7,-2.593 6.6,0 11.43,1.676 14.5,5.047 3.07,3.371 4.74,8.171 5,14.453 l -12.4,0 c -0.4,-3.407 -1.14,-5.938 -2.19,-7.61 -1.07,-1.668 -2.78,-2.5 -5.11,-2.5 -1.27,0 -2.34,0.356 -3.2,1.059 -0.86,0.691 -1.57,1.629 -2.1,2.801 -0.54,1.164 -0.92,2.5 -1.15,3.996 -0.24,1.504 -0.34,3.047 -0.34,4.644 l 0,4.309 27.3,0 z m -27.3,8.191 0,2.102 c 0,1.269 0.1,2.527 0.34,3.801 0.23,1.265 0.61,2.422 1.15,3.457 0.53,1.023 1.25,1.863 2.15,2.5 0.9,0.625 2.05,0.945 3.46,0.945 1.39,0 2.54,-0.281 3.44,-0.852 0.91,-0.566 1.6,-1.394 2.1,-2.5 0.51,-1.101 0.85,-2.429 1.05,-4 0.2,-1.566 0.33,-3.378 0.4,-5.453 l -14.09,0 z m 74.48,1.411 c 0,6.394 -1.61,11.46 -4.85,15.195 -3.23,3.726 -8.04,5.601 -14.44,5.601 -3.21,0 -6.14,-0.425 -8.8,-1.304 -2.66,-0.871 -4.97,-2.375 -6.91,-4.543 -1.93,-2.176 -3.42,-5.078 -4.48,-8.699 -1.08,-3.633 -1.62,-8.223 -1.62,-13.75 0,-5.403 0.44,-9.922 1.31,-13.555 0.86,-3.637 2.14,-6.535 3.85,-8.703 1.69,-2.168 3.83,-3.719 6.39,-4.649 2.58,-0.926 5.59,-1.394 9.05,-1.394 7.34,0 12.59,1.89 15.76,5.691 3.17,3.809 4.74,9.238 4.74,16.309 l -13.19,0 c 0,-4.407 -0.54,-7.61 -1.6,-9.61 -1.07,-1.992 -2.77,-3 -5.1,-3 -1.54,0 -2.79,0.356 -3.75,1.059 -0.97,0.691 -1.72,1.812 -2.25,3.348 -0.54,1.535 -0.9,3.476 -1.09,5.847 -0.21,2.375 -0.31,5.215 -0.31,8.547 0,3.074 0.1,5.774 0.31,8.106 0.19,2.324 0.55,4.25 1.09,5.754 0.53,1.492 1.31,2.625 2.35,3.398 1.03,0.769 2.42,1.148 4.14,1.148 1.27,0 2.32,-0.32 3.15,-0.957 0.84,-0.625 1.47,-1.464 1.91,-2.5 0.43,-1.023 0.73,-2.195 0.9,-3.496 0.16,-1.297 0.25,-2.578 0.25,-3.843 l 13.19,0 z m 7.88,-34.407 13.8,0 0,35.703 c 0,5.926 2.44,8.899 7.3,8.899 2.07,0 3.57,-0.547 4.5,-1.653 0.94,-1.093 1.41,-3.046 1.41,-5.847 l 0,-37.102 13.79,0 0,39.903 c 0,5.402 -1.18,9.296 -3.55,11.699 -2.36,2.402 -5.75,3.601 -10.15,3.601 -6.06,0 -10.43,-2.3 -13.1,-6.902 l -0.2,0 0,23.098 -13.8,0 0,-71.399 z m 50.57,0 13.79,0 0,35.703 c 0,5.926 2.45,8.899 7.3,8.899 2.07,0 3.57,-0.547 4.51,-1.653 0.93,-1.093 1.39,-3.046 1.39,-5.847 l 0,-37.102 13.81,0 0,39.903 c 0,5.402 -1.19,9.296 -3.56,11.699 -2.36,2.402 -5.75,3.601 -10.14,3.601 -3.01,0 -5.66,-0.625 -8.01,-1.851 -2.33,-1.235 -4.23,-3.188 -5.7,-5.852 l -0.2,0 0,6.297 -13.19,0 0,-53.797 z m 49.94,14.5 c 0.68,-3.535 1.8,-6.504 3.41,-8.894 1.59,-2.403 3.76,-4.192 6.49,-5.352 2.74,-1.172 6.18,-1.719 10.3,-1.648 3.94,0 7.25,0.613 9.95,1.843 2.7,1.231 4.9,3.028 6.56,5.403 1.67,2.371 2.86,5.32 3.59,8.847 0.74,3.536 1.1,7.606 1.1,12.208 0,4.667 -0.32,8.777 -1,12.339 -0.66,3.578 -1.79,6.555 -3.4,8.957 -1.6,2.403 -3.76,4.18 -6.5,5.352 -2.72,1.16 -6.16,1.719 -10.3,1.648 -3.92,0 -7.24,-0.625 -9.94,-1.851 -2.7,-1.235 -4.89,-3.028 -6.56,-5.403 -1.66,-2.375 -2.85,-5.324 -3.6,-8.847 -0.73,-3.535 -1.09,-7.598 -1.09,-12.195 0,-4.739 0.33,-8.879 0.99,-12.407 m 13,20 c 0.15,2.324 0.45,4.328 0.95,5.996 0.5,1.672 1.24,2.969 2.2,3.911 0.98,0.925 2.32,1.394 4.05,1.394 2.8,0 4.74,-1.477 5.8,-4.402 1.07,-2.934 1.6,-7.766 1.6,-14.492 0,-6.743 -0.53,-11.575 -1.6,-14.504 -1.06,-2.93 -3,-4.407 -5.8,-4.407 -1.73,0 -3.07,0.469 -4.05,1.411 -0.96,0.925 -1.7,2.222 -2.2,3.894 -0.5,1.672 -0.8,3.672 -0.95,5.996 -0.13,2.332 -0.2,4.871 -0.2,7.61 0,2.722 0.07,5.261 0.2,7.593 m 36.76,-34.5 13.81,0 0,71.399 -13.81,0 0,-71.399 z m 23.27,14.5 c 0.67,-3.535 1.81,-6.504 3.4,-8.894 1.6,-2.403 3.77,-4.192 6.51,-5.352 2.74,-1.172 6.16,-1.719 10.29,-1.648 3.94,0 7.26,0.613 9.96,1.843 2.7,1.231 4.88,3.028 6.54,5.403 1.67,2.371 2.87,5.32 3.6,8.847 0.74,3.536 1.11,7.606 1.11,12.208 0,4.667 -0.34,8.777 -1.01,12.339 -0.65,3.578 -1.8,6.555 -3.39,8.957 -1.61,2.403 -3.76,4.18 -6.51,5.352 -2.73,1.16 -6.16,1.719 -10.3,1.648 -3.93,0 -7.25,-0.625 -9.95,-1.851 -2.7,-1.235 -4.87,-3.028 -6.54,-5.403 -1.67,-2.375 -2.87,-5.324 -3.61,-8.847 -0.73,-3.535 -1.1,-7.598 -1.1,-12.195 0,-4.739 0.34,-8.879 1,-12.407 m 13,20 c 0.14,2.324 0.46,4.328 0.95,5.996 0.5,1.672 1.24,2.969 2.21,3.911 0.96,0.925 2.32,1.394 4.04,1.394 2.8,0 4.75,-1.477 5.8,-4.402 1.07,-2.934 1.6,-7.766 1.6,-14.492 0,-6.743 -0.53,-11.575 -1.6,-14.504 -1.05,-2.93 -3,-4.407 -5.8,-4.407 -1.72,0 -3.08,0.469 -4.04,1.411 -0.97,0.925 -1.71,2.222 -2.21,3.894 -0.49,1.672 -0.81,3.672 -0.95,5.996 -0.12,2.332 -0.2,4.871 -0.2,7.61 0,2.722 0.08,5.261 0.2,7.593 m 49.34,-0.144 c 0.17,2.5 0.53,4.492 1.05,5.996 0.54,1.504 1.27,2.578 2.2,3.254 0.94,0.664 2.17,0.996 3.71,0.996 2.74,0 4.62,-1.367 5.65,-4.106 1.04,-2.722 1.54,-7.363 1.54,-13.894 0,-2.278 -0.1,-4.356 -0.35,-6.25 -0.23,-1.903 -0.63,-3.528 -1.19,-4.856 -0.57,-1.328 -1.34,-2.371 -2.3,-3.14 -0.97,-0.774 -2.19,-1.157 -3.66,-1.157 -1.46,0 -2.65,0.383 -3.55,1.157 -0.9,0.769 -1.6,1.797 -2.1,3.093 -0.49,1.297 -0.83,2.786 -1,4.454 -0.16,1.671 -0.25,3.425 -0.25,5.3 0,3.594 0.09,6.653 0.25,9.153 m 14.15,19.441 0,-5.992 -0.2,0 c -1.33,2.801 -3.02,4.727 -5.09,5.801 -2.07,1.062 -4.07,1.597 -6.01,1.597 -3.73,0 -6.7,-0.828 -8.95,-2.5 -2.23,-1.668 -3.93,-3.828 -5.1,-6.453 -1.16,-2.629 -1.93,-5.578 -2.3,-8.847 -0.35,-3.274 -0.55,-6.473 -0.55,-9.598 0,-9.809 1.39,-16.777 4.16,-20.949 2.76,-4.168 6.88,-6.25 12.34,-6.25 2.21,0 4.33,0.593 6.35,1.797 2.04,1.203 3.75,2.8 5.15,4.796 l 0.2,0 0,-7.101 c 0,-2.793 -0.56,-5.117 -1.7,-6.941 -1.12,-1.836 -3.1,-2.754 -5.89,-2.754 -0.86,0 -1.68,0.125 -2.46,0.398 -0.76,0.273 -1.48,0.637 -2.14,1.106 -1.41,0.996 -2.1,2.363 -2.1,4.089 l -13.21,0 c 0,-4.597 1.59,-8.144 4.75,-10.644 3.17,-2.5 7.69,-3.75 13.55,-3.75 8.08,0 13.82,1.719 17.25,5.144 3.44,3.442 5.16,8.75 5.16,15.957 l 0,51.094 -13.21,0 z m 23.66,-71.394 5.6,0 c 3.19,0 5.85,0.222 7.95,0.703 2.09,0.468 3.89,1.445 5.4,2.949 1.49,1.492 2.99,4.172 4.49,8 1.5,3.824 2.45,7.019 2.85,9.551 l 13,50.191 -13.8,0 -7,-37.195 -0.19,0 -8.01,37.195 -14.4,0 15.1,-53.797 c -0.19,-2.402 -0.85,-4.265 -1.95,-5.593 -1.1,-1.34 -2.91,-2.004 -5.45,-2.004 -1.2,0 -2.4,0.097 -3.59,0.3 l 0,-10.3"
        style="fill-opacity:1;fill-rule:nonzero;stroke:none" id="path4184"
        inkscape:connector-curvature="0" />
      <path
        d="m 859.258,524.941 -14.399,0 0,-71.402 14.399,0 0,71.402 z m 10.601,-71.402 13.801,0 0,35.699 c 0,5.942 2.438,8.903 7.301,8.903 2.07,0 3.57,-0.551 4.5,-1.653 0.941,-1.097 1.398,-3.047 1.398,-5.847 l 0,-37.102 13.801,0 0,39.902 c 0,5.399 -1.18,9.297 -3.551,11.7 -2.359,2.398 -5.746,3.597 -10.152,3.597 -2.996,0 -5.656,-0.609 -7.996,-1.847 -2.328,-1.231 -4.231,-3.18 -5.699,-5.852 l -0.199,0 0,6.301 -13.204,0 0,-53.801 z m 48.442,17.598 0,-1.899 c 0,-2.597 0.297,-4.945 0.898,-7.047 0.602,-2.101 1.653,-3.902 3.149,-5.398 1.5,-1.504 3.519,-2.652 6.05,-3.453 2.543,-0.801 5.774,-1.199 9.704,-1.199 2.871,0 5.535,0.347 7.996,1.047 2.472,0.703 4.59,1.753 6.351,3.152 1.77,1.398 3.153,3.172 4.153,5.301 0.996,2.136 1.5,4.597 1.5,7.398 0,4.07 -0.899,7.289 -2.704,9.652 -1.8,2.368 -4.855,4.289 -9.199,5.747 l -8.301,2.804 c -2.328,0.738 -3.91,1.641 -4.75,2.699 -0.828,1.071 -1.25,2.27 -1.25,3.598 0,1.941 0.653,3.391 1.95,4.352 1.304,0.972 2.824,1.449 4.55,1.449 2.27,0 3.852,-0.649 4.75,-1.953 0.899,-1.297 1.356,-3.348 1.356,-6.149 l 12.394,0 0,2.203 c 0,4.872 -1.5,8.637 -4.496,11.301 -3.004,2.668 -7.632,3.996 -13.902,3.996 -3.527,0 -6.551,-0.425 -9.051,-1.297 -2.5,-0.859 -4.547,-2.031 -6.148,-3.5 -1.602,-1.461 -2.758,-3.179 -3.5,-5.152 -0.731,-1.957 -1.102,-4.047 -1.102,-6.25 0,-3.801 0.969,-6.91 2.903,-9.351 1.937,-2.426 4.8,-4.305 8.597,-5.649 l 9.703,-3.5 c 1.336,-0.527 2.5,-1.25 3.496,-2.148 1,-0.899 1.504,-2.211 1.504,-3.953 0,-2.125 -0.632,-3.731 -1.906,-4.797 -1.258,-1.063 -2.957,-1.602 -5.098,-1.602 -2.328,0 -4.109,0.723 -5.347,2.152 -1.235,1.442 -1.852,3.321 -1.852,5.649 l 0,1.797 -12.398,0 z m 51.031,36.203 -7.004,0 0,-9.402 7.004,0 0,-30.797 c 0,-2.731 0.172,-5 0.496,-6.797 0.344,-1.805 0.953,-3.254 1.852,-4.352 0.898,-1.105 2.191,-1.883 3.851,-2.355 1.672,-0.457 3.867,-0.699 6.598,-0.699 1.601,0 3.121,0.07 4.551,0.203 1.441,0.14 2.922,0.265 4.449,0.398 l 0,9.602 c -0.461,-0.059 -0.957,-0.11 -1.5,-0.153 -0.527,-0.031 -1.059,-0.05 -1.598,-0.05 -2,0 -3.308,0.453 -3.949,1.355 -0.629,0.898 -0.953,2.414 -0.953,4.547 l 0,29.098 8,0 0,9.402 -8,0 0,15.398 -13.797,0 0,-15.398 z m 28.379,6.601 13.799,0 0,11.801 -13.799,0 0,-11.801 z m 0,-60.402 13.799,0 0,53.801 -13.799,0 0,-53.801 z m 27.209,53.801 -7,0 0,-9.402 7,0 0,-30.797 c 0,-2.731 0.17,-5 0.5,-6.797 0.33,-1.805 0.95,-3.254 1.85,-4.352 0.9,-1.105 2.18,-1.883 3.85,-2.355 1.67,-0.457 3.87,-0.699 6.6,-0.699 1.6,0 3.12,0.07 4.55,0.203 1.43,0.14 2.92,0.265 4.45,0.398 l 0,9.602 c -0.47,-0.059 -0.97,-0.11 -1.5,-0.153 -0.53,-0.031 -1.07,-0.05 -1.6,-0.05 -2,0 -3.32,0.453 -3.95,1.355 -0.63,0.898 -0.95,2.414 -0.95,4.547 l 0,29.098 8,0 0,9.402 -8,0 0,15.398 -13.8,0 0,-15.398 z m 55.29,-53.801 13.2,0 0,53.801 -13.8,0 0,-35.699 c 0,-5.934 -2.44,-8.903 -7.3,-8.903 -2.07,0 -3.57,0.551 -4.5,1.653 -0.93,1.097 -1.4,3.05 -1.4,5.847 l 0,37.102 -13.8,0 0,-39.899 c 0,-5.402 1.18,-9.3 3.55,-11.699 2.36,-2.402 5.75,-3.601 10.15,-3.601 3,0 5.66,0.617 8,1.847 2.33,1.242 4.23,3.192 5.7,5.852 l 0.2,0 0,-6.301 z m 26.34,53.801 -7,0 0,-9.402 7,0 0,-30.797 c 0,-2.731 0.16,-5 0.5,-6.797 0.33,-1.805 0.95,-3.254 1.85,-4.352 0.9,-1.105 2.18,-1.883 3.85,-2.355 1.66,-0.457 3.86,-0.699 6.6,-0.699 1.6,0 3.11,0.07 4.55,0.203 1.43,0.14 2.91,0.265 4.45,0.398 l 0,9.602 c -0.47,-0.059 -0.97,-0.11 -1.5,-0.153 -0.53,-0.031 -1.07,-0.05 -1.6,-0.05 -2,0 -3.32,0.453 -3.95,1.355 -0.64,0.898 -0.95,2.414 -0.95,4.547 l 0,29.098 8,0 0,9.402 -8,0 0,15.398 -13.8,0 0,-15.398 z m 66.99,-29 0,3.101 c 0,4.141 -0.27,7.891 -0.8,11.25 -0.54,3.368 -1.54,6.239 -3,8.598 -1.47,2.371 -3.49,4.199 -6.05,5.504 -2.57,1.297 -5.85,1.945 -9.85,1.945 -4.67,0 -8.4,-0.758 -11.2,-2.297 -2.8,-1.531 -4.95,-3.597 -6.45,-6.203 -1.5,-2.597 -2.5,-5.558 -3,-8.898 -0.5,-3.332 -0.75,-6.801 -0.75,-10.399 0,-3.328 0.15,-6.711 0.45,-10.152 0.3,-3.43 1.11,-6.531 2.45,-9.301 1.33,-2.758 3.4,-5.008 6.2,-6.746 2.8,-1.734 6.7,-2.601 11.7,-2.601 6.6,0 11.43,1.687 14.5,5.05 3.06,3.372 4.73,8.192 5,14.45 l -12.4,0 c -0.4,-3.399 -1.14,-5.934 -2.2,-7.602 -1.07,-1.66 -2.77,-2.5 -5.1,-2.5 -1.27,0 -2.34,0.352 -3.2,1.051 -0.87,0.699 -1.57,1.64 -2.1,2.801 -0.54,1.168 -0.92,2.5 -1.15,4 -0.24,1.5 -0.35,3.05 -0.35,4.648 l 0,4.301 27.3,0 z m -27.3,8.199 0,2.098 c 0,1.273 0.11,2.547 0.35,3.804 0.23,1.27 0.61,2.418 1.15,3.45 0.53,1.039 1.25,1.867 2.15,2.5 0.9,0.636 2.05,0.949 3.45,0.949 1.4,0 2.55,-0.281 3.45,-0.848 0.9,-0.562 1.6,-1.402 2.1,-2.5 0.5,-1.105 0.85,-2.433 1.05,-4 0.2,-1.562 0.33,-3.383 0.4,-5.453 l -14.1,0 z m 61.5,-33 13.8,0 0,44.399 8,0 0,9.402 -8,0 0,4.699 c 0,1.539 0.4,2.641 1.2,3.305 0.8,0.668 2.16,0.996 4.1,0.996 l 1.3,0 c 0.6,0 1.06,-0.031 1.4,-0.102 l 0,9.801 c -2.54,0.199 -5,0.301 -7.4,0.301 -2.2,0 -4.2,-0.211 -6,-0.652 -1.8,-0.43 -3.32,-1.149 -4.55,-2.149 -1.24,-1 -2.19,-2.328 -2.85,-4 -0.67,-1.656 -1,-3.699 -1,-6.098 l 0,-6.101 -7,0 0,-9.402 7,0 0,-44.399 z m 26.74,14.504 c 0.66,-3.531 1.8,-6.504 3.4,-8.902 1.6,-2.403 3.76,-4.18 6.5,-5.352 2.73,-1.156 6.16,-1.711 10.3,-1.648 3.93,0 7.25,0.617 9.95,1.847 2.7,1.242 4.88,3.043 6.55,5.403 1.66,2.367 2.86,5.32 3.6,8.851 0.73,3.539 1.1,7.598 1.1,12.196 0,4.675 -0.34,8.792 -1,12.351 -0.67,3.574 -1.8,6.551 -3.4,8.949 -1.6,2.403 -3.77,4.192 -6.5,5.352 -2.74,1.172 -6.17,1.719 -10.3,1.648 -3.94,0 -7.25,-0.609 -9.95,-1.847 -2.7,-1.231 -4.89,-3.028 -6.55,-5.403 -1.67,-2.355 -2.87,-5.304 -3.6,-8.847 -0.74,-3.532 -1.1,-7.602 -1.1,-12.203 0,-4.731 0.33,-8.856 1,-12.395 m 13,20 c 0.13,2.34 0.45,4.336 0.95,5.996 0.5,1.668 1.23,2.973 2.2,3.899 0.96,0.945 2.31,1.402 4.05,1.402 2.8,0 4.73,-1.457 5.8,-4.399 1.06,-2.929 1.6,-7.761 1.6,-14.503 0,-6.727 -0.54,-11.555 -1.6,-14.497 -1.07,-2.933 -3,-4.402 -5.8,-4.402 -1.74,0 -3.09,0.473 -4.05,1.399 -0.97,0.945 -1.7,2.242 -2.2,3.902 -0.5,1.672 -0.82,3.668 -0.95,6.004 -0.14,2.336 -0.2,4.867 -0.2,7.594 0,2.742 0.06,5.269 0.2,7.605 m 36.43,-34.504 13.8,0 0,32.301 c 0,1.801 0.3,3.32 0.9,4.551 0.6,1.242 1.4,2.242 2.4,3 1,0.769 2.1,1.32 3.3,1.648 1.2,0.344 2.4,0.504 3.6,0.504 0.73,0 1.45,-0.012 2.15,-0.055 0.7,-0.031 1.41,-0.078 2.15,-0.144 l 0,13.195 c -0.4,0.07 -0.82,0.121 -1.25,0.152 -0.44,0.039 -0.85,0.047 -1.25,0.047 -2.87,0 -5.3,-0.781 -7.3,-2.347 -2,-1.563 -3.7,-3.653 -5.1,-6.25 l -0.2,0 0,7.199 -13.2,0 0,-53.801"
        style="fill-opacity:1;fill-rule:nonzero;stroke:none" id="path4186"
        inkscape:connector-curvature="0" />
      <path
        d="m 771.109,226.926 -16.937,298.039 -73.563,0 -136.371,-291.84 0,242.594 64.461,0 0,49.246 -185.14,0 -3.301,0 -56.199,0 0,-113.949 -69.43,0 0,113.949 -59.512,0 0,-298.039 59.512,0 0,132.32 69.43,0 0,-132.32 59.5,0 0,248.793 61.168,0 0,-248.793 56.613,0 2.898,0 59.09,0 26.453,63.035 78.52,0 0.82,-63.035 61.988,0 z m -63.226,112.293 -57.856,0 56.203,133.988 0.833,0 0.82,-133.988 z M 141.73,226.926 l 59.508,0 0,298.039 -59.508,0 0,-298.039"
        style="fill-opacity:1;fill-rule:nonzero;stroke:none" id="path4188"
        inkscape:connector-curvature="0" />
    </g>
  </g>
</svg>